<?xml version="1.0" standalone="no"?>
<!DOCTYPE svg PUBLIC "-//W3C//DTD SVG 20010904//EN"
 "http://www.w3.org/TR/2001/REC-SVG-20010904/DTD/svg10.dtd">
<svg version="1.0" xmlns="http://www.w3.org/2000/svg"
 width="16.000000pt" height="16.000000pt" viewBox="0 0 16.000000 16.000000"
 preserveAspectRatio="xMidYMid meet">

<g transform="translate(0.000000,16.000000) scale(0.100000,-0.100000)"
fill="#000000" stroke="none">
<path d="M0 80 l0 -80 80 0 80 0 0 80 0 80 -80 0 -80 0 0 -80z m118 48 c20
-20 13 -32 -7 -14 -36 33 -82 -4 -66 -53 7 -23 35 -34 59 -25 23 9 20 32 -6
37 -17 3 -14 5 10 6 25 1 32 -3 32 -17 0 -47 -78 -60 -105 -18 -18 28 -11 71
14 86 22 13 55 12 69 -2z"/>
</g>
</svg>
